<svg width="156" height="36" viewBox="0 0 156 36" fill="none" xmlns="http://www.w3.org/2000/svg">
<path d="M151.424 23.957H151.408C150.057 23.9601 148.966 25.0534 148.969 26.397C148.972 27.7405 150.072 28.8246 151.424 28.8215C152.775 28.8184 153.866 27.7251 153.862 26.3815C153.856 25.0442 152.769 23.9601 151.424 23.957ZM151.424 28.5219C150.262 28.525 149.314 27.5923 149.311 26.4371C149.308 25.282 150.246 24.34 151.408 24.3369H151.424C152.586 24.3369 153.53 25.2758 153.53 26.4309C153.53 27.5861 152.586 28.5219 151.424 28.5219Z" fill="white"/>
<path d="M152.294 27.0027C152.238 26.5919 152.076 26.3727 151.834 26.3263V26.3078C152.151 26.2398 152.374 25.9588 152.374 25.6376C152.393 25.4183 152.3 25.2021 152.126 25.0662C151.868 24.9087 151.567 24.8376 151.262 24.8593C151.001 24.8623 150.74 24.884 150.482 24.9241V27.6822H150.923V26.4931H151.231C151.517 26.4499 151.784 26.6475 151.824 26.9317C151.828 26.9502 151.828 26.9687 151.831 26.9873C151.852 27.2313 151.915 27.4691 152.014 27.6915H152.477C152.381 27.4722 152.318 27.2405 152.294 27.0027ZM151.234 26.1565H150.914V25.2237C151.02 25.2052 151.125 25.199 151.234 25.199C151.731 25.199 151.908 25.4461 151.908 25.6932C151.908 26.0329 151.598 26.1657 151.234 26.1657" fill="white"/>
<path d="M98.7722 9.51462C94.084 9.51462 90.3465 12.3314 89.6195 16.3342C88.9639 20.0745 91.7166 23.0612 95.8766 23.0612H102.771C105.405 23.0612 106.772 24.1607 106.443 25.9984C106.173 27.5211 104.548 28.6207 102.6 28.6207H88.2276C88.7433 27.7651 89.0975 26.8231 89.2746 25.8409C90.0171 21.6744 87.5224 19.0213 82.9056 19.0213H75.325C73.6318 19.0213 72.3952 17.7612 72.6562 16.3126C73.0197 14.7961 74.3743 13.7213 75.9432 13.7027H86.4008C90.0047 13.7027 90.6137 9.49609 90.6137 9.49609H74.8372C70.1521 9.49609 66.4115 12.3129 65.6969 16.3157C65.029 20.0683 67.7847 23.0426 71.9447 23.0426H78.8388C81.4703 23.0426 82.8342 24.1422 82.5142 25.9799C82.2439 27.5026 80.6128 28.6021 78.671 28.6021H65.6472L60.7726 9.51462H55.0467C55.0467 9.51462 52.9341 13.0449 51.6292 15.142C48.5379 20.0807 52.089 23.3855 52.1387 23.4442H46.8509L43.2874 29.5071L40.1464 23.4225C43.9212 22.6504 46.5899 20.0622 47.2051 16.6029C47.9041 12.7144 45.4466 9.51153 41.706 9.51153H5.53636C1.94177 9.51462 1.33594 13.6996 1.33594 13.6996H11.9457L8.5562 32.8057C8.5562 32.8057 13.8689 33.3122 14.9438 27.2462C15.6864 22.9809 17.3392 13.712 17.3392 13.712H36.4462C39.205 13.712 40.7212 14.8733 40.3825 16.7759C40.0594 18.6198 37.8691 20.127 35.4271 20.127H27.0573C23.1707 20.1301 22.0585 24.0248 22.0585 24.0248L20.4988 32.8088H25.9016L27.4892 23.8549H33.9607L38.4221 32.8088H47.1492L50.2063 27.5118H59.8188L60.8316 32.8088H104.74C108.872 32.8088 112.495 29.8036 113.197 25.8286C113.94 21.662 111.464 19.0089 106.831 19.0089H99.2631C97.5729 19.0089 96.3271 17.7488 96.5881 16.3002C96.7403 15.4262 97.4425 14.6139 98.5702 14.0826C98.9679 13.8572 99.4122 13.7274 99.872 13.7027H118.314L114.931 32.8026C114.931 32.8026 119.607 33.2505 121.073 28.2716C121.129 27.9968 121.185 27.728 121.231 27.4377L124.41 9.51462H98.7722ZM52.1512 23.4534L57.0196 15.2965L58.7532 23.4411L52.1512 23.4534Z" fill="white"/>
<path d="M149.584 11.9H126.389L126.084 13.6235H149.28L149.584 11.9ZM147.758 9.51562H126.814L126.507 11.2391H147.45L147.758 9.51562ZM143.029 14.2999L142.728 16.0233H151.101L151.405 14.2999H143.029ZM145.629 21.4963H124.689L124.379 23.2197H145.322L145.629 21.4963ZM142.296 18.4262H150.672L150.982 16.7028H142.606L142.296 18.4262ZM148.304 19.0995H126.774L126.47 20.823H148L148.304 19.0995ZM142.877 23.893H136.719L136.415 25.6165H142.575L142.877 23.893ZM123.953 25.6165H129.26L129.57 23.893H124.258L123.953 25.6165ZM144.707 26.2836H138.537L138.229 28.0071H144.402L144.707 26.2836ZM146.527 28.6866H140.366L140.065 30.41H146.232L146.527 28.6866ZM141.886 32.8098H148.056L148.354 31.0864H142.193L141.886 32.8098ZM122.682 32.8098H127.992L128.306 31.0864H122.99L122.682 32.8098ZM123.108 30.4131H128.424L128.728 28.6896H123.409L123.108 30.4131ZM123.829 26.3269L123.537 28.0132H128.853L129.154 26.2898H124.466L123.829 26.3269Z" fill="white"/>
<path d="M120.017 1.50977L119.01 7.1897H124.227L124.279 6.88701C125.32 1.02486 120.017 1.50977 120.017 1.50977Z" fill="white"/>
</svg>
