<svg width="246" height="68" viewBox="0 0 246 68" fill="none" xmlns="http://www.w3.org/2000/svg">
<path d="M140.228 67.3535H110.12L94.5234 52.2822L109.558 37.7178L140.228 67.3535ZM72.8887 67.3525H42.7812L75.4385 35.7598H105.584L72.8887 67.3525ZM40.6055 61.4121C41.3928 61.4121 42.0301 62.0274 42.0303 62.7881C42.0303 63.549 41.3929 64.165 40.6055 64.165H31.3818C30.5946 64.165 29.957 63.5489 29.957 62.7881C29.9572 62.0275 30.5947 61.4122 31.3818 61.4121H40.6055ZM48.1406 54.1289C48.928 54.1289 49.5654 54.745 49.5654 55.5059C49.5652 56.2665 48.9278 56.8818 48.1406 56.8818H23.8447C23.0576 56.8817 22.4201 56.2664 22.4199 55.5059C22.4199 54.7451 23.0575 54.129 23.8447 54.1289H48.1406ZM55.79 46.8818C56.5773 46.8818 57.2147 47.4972 57.2148 48.2578C57.2148 49.0187 56.578 49.6347 55.8281 49.6348H16.1592C15.3719 49.6346 14.7344 49.0186 14.7344 48.2578C14.7346 47.4973 15.3721 46.882 16.1592 46.8818H55.79ZM142.065 17.5732C149.864 17.5732 155.563 21.9933 157.625 28.4424H149.265C147.802 25.689 145.215 24.3487 141.953 24.3486C136.029 24.3486 132.693 28.5508 132.692 33.333C132.692 38.4415 136.254 42.5361 141.953 42.5361C143.228 42.5361 147.203 42.3182 149.265 38.6592H157.625V38.7314C155.338 45.0355 150.052 49.3836 142.328 49.3838C130.706 49.3838 125.268 40.7242 125.268 33.2607C125.268 26.3045 130.517 17.5733 142.065 17.5732ZM177.234 17.6084C186.72 17.5723 193.619 24.8183 193.619 33.5498C193.619 42.2448 186.645 49.3817 177.234 49.3818C167.823 49.3818 160.85 42.2087 160.85 33.5498C160.85 24.8182 167.748 17.6084 177.234 17.6084ZM205.505 21.7383H205.617C207.792 18.7675 211.316 18.0069 213.641 18.0068C216.753 18.0068 220.54 19.3113 222.677 22.6445C224.477 20.2896 227.514 18.0068 232.538 18.0068C240.074 18.0068 245.136 22.9705 245.136 31.376V48.8389H237.712V33.0059C237.712 30.3247 237.374 24.8184 231.638 24.8184C225.939 24.8186 225.602 30.3248 225.602 33.0059V48.875H218.215V33.0059C218.215 30.3247 217.878 24.8185 212.142 24.8184C206.442 24.8184 206.105 30.3247 206.104 33.0059V48.875H198.681V18.0068H205.505V21.7383ZM177.234 24.3828C171.685 24.3828 168.235 28.6949 168.235 33.5498C168.236 38.4045 171.761 42.6074 177.234 42.6074C182.708 42.6073 186.195 38.4045 186.195 33.5498C186.195 28.695 182.746 24.383 177.234 24.3828ZM63.2139 39.6006C64.0013 39.6006 64.6387 40.2167 64.6387 40.9775C64.6386 41.7384 64.0013 42.3545 63.2139 42.3545H8.73535C7.94815 42.3544 7.31057 41.7383 7.31055 40.9775C7.31055 40.2168 7.94813 39.6007 8.73535 39.6006H63.2139ZM70.5635 32.3545C71.3508 32.3545 71.9883 32.9706 71.9883 33.7314C71.9881 34.4922 71.3507 35.1084 70.5635 35.1084H1.4248C0.637582 35.1084 0.000181429 34.4921 0 33.7314C0 32.9707 0.63747 32.3545 1.4248 32.3545H70.5635ZM105.584 31.5928H75.4385L42.7812 0H72.8887L105.584 31.5928ZM109.558 29.6367L94.5234 15.0723L110.12 0H140.228L109.558 29.6367ZM63.2139 25.0713C64.0013 25.0713 64.6387 25.6874 64.6387 26.4482C64.6386 27.209 64.0012 27.8252 63.2139 27.8252H8.73535C7.94816 27.8251 7.3106 27.2089 7.31055 26.4482C7.31055 25.6875 7.94813 25.0714 8.73535 25.0713H63.2139ZM55.79 17.8252C56.5774 17.8252 57.2148 18.4414 57.2148 19.2021C57.2148 19.963 56.578 20.5791 55.8281 20.5791H16.1592C15.3719 20.5789 14.7344 19.9629 14.7344 19.2021C14.7344 18.4415 15.372 17.8254 16.1592 17.8252H55.79ZM48.1406 10.5439C48.9279 10.5439 49.5653 11.1592 49.5654 11.9199C49.5654 12.6807 48.928 13.2969 48.1406 13.2969H23.8447C23.0575 13.2967 22.4199 12.6806 22.4199 11.9199C22.4201 11.1593 23.0576 10.5441 23.8447 10.5439H48.1406ZM40.6055 3.25977C41.3928 3.25977 42.0302 3.87592 42.0303 4.63672C42.0303 5.39756 41.3929 6.01367 40.6055 6.01367H31.3818C30.5946 6.01359 29.957 5.39751 29.957 4.63672C29.9571 3.87597 30.5946 3.25985 31.3818 3.25977H40.6055Z" fill="url(#paint0_linear_1830_5675)"/>
<defs>
<linearGradient id="paint0_linear_1830_5675" x1="6.03097e-06" y1="1.14037" x2="172.749" y2="150.869" gradientUnits="userSpaceOnUse">
<stop/>
<stop offset="1" stop-color="#103F77"/>
</linearGradient>
</defs>
</svg>
