<svg width="34" height="30" viewBox="0 0 34 30" fill="none" xmlns="http://www.w3.org/2000/svg">
<path d="M2 12.7275C0.89543 12.7275 0 13.623 0 14.7275C0 15.8321 0.89543 16.7275 2 16.7275V14.7275V12.7275ZM33.4142 16.1418C34.1953 15.3607 34.1953 14.0944 33.4142 13.3133L20.6863 0.585403C19.9052 -0.195645 18.6389 -0.195645 17.8579 0.585403C17.0768 1.36645 17.0768 2.63278 17.8579 3.41383L29.1716 14.7275L17.8579 26.0412C17.0768 26.8223 17.0768 28.0886 17.8579 28.8697C18.6389 29.6507 19.9052 29.6507 20.6863 28.8697L33.4142 16.1418ZM2 14.7275V16.7275H32V14.7275V12.7275H2V14.7275Z" fill="url(#paint0_linear_1866_5113)"/>
<defs>
<linearGradient id="paint0_linear_1866_5113" x1="2" y1="14.7445" x2="2.71141" y2="19.8271" gradientUnits="userSpaceOnUse">
<stop/>
<stop offset="1" stop-color="#103F77"/>
</linearGradient>
</defs>
</svg>
