<svg width="34" height="30" viewBox="0 0 34 30" fill="none" xmlns="http://www.w3.org/2000/svg">
<path d="M32 12.7275C33.1046 12.7275 34 13.623 34 14.7275C34 15.8321 33.1046 16.7275 32 16.7275V14.7275V12.7275ZM0.585787 16.1418C-0.195263 15.3607 -0.195263 14.0944 0.585787 13.3133L13.3137 0.585403C14.0948 -0.195645 15.3611 -0.195645 16.1421 0.585403C16.9232 1.36645 16.9232 2.63278 16.1421 3.41383L4.82843 14.7275L16.1421 26.0412C16.9232 26.8223 16.9232 28.0886 16.1421 28.8697C15.3611 29.6507 14.0948 29.6507 13.3137 28.8697L0.585787 16.1418ZM32 14.7275V16.7275H2V14.7275V12.7275H32V14.7275Z" fill="url(#paint0_linear_1866_5115)"/>
<defs>
<linearGradient id="paint0_linear_1866_5115" x1="32" y1="14.7445" x2="31.2886" y2="19.8271" gradientUnits="userSpaceOnUse">
<stop/>
<stop offset="1" stop-color="#103F77"/>
</linearGradient>
</defs>
</svg>
